# xmcd CD database file
#
# Track frame offsets:
#	182
#	10665
#	22740
#	40965
#	65317
#	75667
#	88945
#	102772
#	117267
#	131777
#	145175
#	163057
#	181452
#	194102
#	212202
#	226127
#	241927
#	256525
#	270327
#	288135
#	302417
#	312872
#	326827
#
# Disc length: 4505 seconds
#
# Revision: 2
# Processed by: cddbd v1.5.2PL0 Copyright (c) Steve Scherf et al.
# Submitted via: CDex 1.60beta1-cs1
#
DISCID=34119717
DTITLE=Pasadena Roof Orchestra - Home in Pasadena  [CD2]
DYEAR=1996
DGENRE=Jazz
TTITLE0=Teddy Bears Picnic
TTITLE1=Sunday
TTITLE2=Isn't it Romantic
TTITLE3=Stormy Weather
TTITLE4=Everything Stops For Tea
TTITLE5=Choo Choo
TTITLE6=My Canary Has Circles Under His Eyes
TTITLE7=Nagasaki
TTITLE8=That's My Weakness now
TTITLE9=Sing, Sing, Sing
TTITLE10=Whispering
TTITLE11=Skokiaan
TTITLE12=Vo Do Do De O Blues
TTITLE13=The Show Must Go On
TTITLE14=Varsity Drag
TTITLE15=The Duke Steps Out
TTITLE16=She's a Latin From Manhattan
TTITLE17=Hey Miss Moonlight
TTITLE18=Love in Bloom
TTITLE19=Me and Jane in a Plane
TTITLE20=Paddlin' Madelin' Home
TTITLE21=Holding Hands
TTITLE22=Here's to the Next Time
EXTD=YEAR: 1996
EXTT0=
EXTT1=
EXTT2=
EXTT3=
EXTT4=
EXTT5=
EXTT6=
EXTT7=
EXTT8=
EXTT9=
EXTT10=
EXTT11=
EXTT12=
EXTT13=
EXTT14=
EXTT15=
EXTT16=
EXTT17=
EXTT18=
EXTT19=
EXTT20=
EXTT21=
EXTT22=
PLAYORDER=
